<svg xmlns="http://www.w3.org/2000/svg" viewBox="0 0 1600 920" width="1600" height="920" style="background:#0d1117; font-family: 'Segoe UI', 'Helvetica Neue', Arial, sans-serif;">

  <rect width="1600" height="920" fill="#0d1117"/>

  <!-- ===== TITLE ===== -->
  <text x="40" y="40" fill="white" font-size="24" font-weight="bold">Agentic Runtime Security — Workshop Architecture</text>
  <text x="40" y="62" fill="#8b949e" font-size="13">IBM Verify + HashiCorp Vault credential-vending backbone for AI agents on AWS EKS</text>

  <!-- AWS badge top-right -->
  <rect x="1408" y="22" width="172" height="36" rx="18" fill="none" stroke="#f59e0b" stroke-width="2"/>
  <text x="1426" y="45" fill="#f59e0b" font-size="12" font-weight="bold">aws</text>
  <text x="1456" y="45" fill="#fde68a" font-size="11">us-west-2 + us-east-1</text>

  <!-- ===== DEFS ===== -->
  <defs>
    <marker id="ao-blue"   markerWidth="8" markerHeight="8" refX="6" refY="3" orient="auto"><path d="M0,0 L0,6 L8,3 z" fill="#3b82f6"/></marker>
    <marker id="ao-teal"   markerWidth="8" markerHeight="8" refX="6" refY="3" orient="auto"><path d="M0,0 L0,6 L8,3 z" fill="#14b8a6"/></marker>
    <marker id="ao-purple" markerWidth="8" markerHeight="8" refX="6" refY="3" orient="auto"><path d="M0,0 L0,6 L8,3 z" fill="#a855f7"/></marker>
    <marker id="ao-red"    markerWidth="8" markerHeight="8" refX="6" refY="3" orient="auto"><path d="M0,0 L0,6 L8,3 z" fill="#ef4444"/></marker>
    <marker id="ao-green"  markerWidth="8" markerHeight="8" refX="6" refY="3" orient="auto"><path d="M0,0 L0,6 L8,3 z" fill="#22c55e"/></marker>
    <marker id="ao-gray"   markerWidth="8" markerHeight="8" refX="6" refY="3" orient="auto"><path d="M0,0 L0,6 L8,3 z" fill="#6b7280"/></marker>
    <radialGradient id="agentRingD" cx="50%" cy="50%" r="50%">
      <stop offset="0%" stop-color="#0f1b30"/>
      <stop offset="100%" stop-color="#0a1424"/>
    </radialGradient>
    <radialGradient id="vaultCore" cx="50%" cy="50%" r="50%">
      <stop offset="0%" stop-color="#1f2937"/>
      <stop offset="100%" stop-color="#111827"/>
    </radialGradient>
    <linearGradient id="vaultRingGrad" x1="0%" y1="0%" x2="100%" y2="100%">
      <stop offset="0%" stop-color="#22d3ee"/>
      <stop offset="33%" stop-color="#a855f7"/>
      <stop offset="66%" stop-color="#3b82f6"/>
      <stop offset="100%" stop-color="#f59e0b"/>
    </linearGradient>
    <linearGradient id="seamGradD" x1="0%" y1="0%" x2="100%" y2="0%">
      <stop offset="0%" stop-color="#a855f7"/>
      <stop offset="100%" stop-color="#22d3ee"/>
    </linearGradient>
  </defs>

  <!-- ================================================================== -->
  <!-- LEFT: Application + User Context                                    -->
  <!-- ================================================================== -->
  <rect x="30" y="200" width="210" height="400" rx="12" fill="#0c2417" stroke="#22c55e" stroke-width="2"/>
  <text x="50" y="228" fill="#4ade80" font-size="14" font-weight="bold">Application + User</text>
  <text x="50" y="245" fill="#4ade80" font-size="14" font-weight="bold">Context</text>

  <!-- User icon -->
  <circle cx="68" cy="292" r="13" fill="none" stroke="#c9d1d9" stroke-width="1.5"/>
  <circle cx="68" cy="287" r="4.5" fill="#c9d1d9"/>
  <path d="M56,301 Q68,294 80,301" fill="none" stroke="#c9d1d9" stroke-width="1.5"/>
  <text x="92" y="290" fill="#e6edf3" font-size="11" font-weight="600">Workshop Users</text>
  <text x="92" y="304" fill="#8b949e" font-size="10">(Oscar, Jaime)</text>

  <!-- Banking App icon -->
  <rect x="55" y="330" width="26" height="20" rx="3" fill="none" stroke="#c9d1d9" stroke-width="1.5"/>
  <line x1="55" y1="338" x2="81" y2="338" stroke="#c9d1d9" stroke-width="1"/>
  <text x="92" y="342" fill="#e6edf3" font-size="11" font-weight="600">Banking App</text>
  <text x="92" y="356" fill="#8b949e" font-size="10">(OscarVault International)</text>

  <!-- Token icon -->
  <rect x="55" y="380" width="26" height="15" rx="7.5" fill="none" stroke="#c9d1d9" stroke-width="1.5"/>
  <circle cx="68" cy="387.5" r="3" fill="#c9d1d9"/>
  <text x="92" y="389" fill="#e6edf3" font-size="11" font-weight="600">Bearer token on</text>
  <text x="92" y="403" fill="#8b949e" font-size="10">transport headers</text>

  <!-- CIBA consent -->
  <rect x="55" y="430" width="26" height="20" rx="3" fill="none" stroke="#22c55e" stroke-width="1.5"/>
  <text x="61" y="444" fill="#22c55e" font-size="8.5" font-weight="bold">OK</text>
  <text x="92" y="442" fill="#e6edf3" font-size="11" font-weight="600">CIBA consent</text>
  <text x="92" y="456" fill="#8b949e" font-size="10">(out-of-band approval)</text>

  <!-- OAuth flows -->
  <text x="50" y="498" fill="#8b949e" font-size="10">UC1: K8s SA only (no user)</text>
  <text x="50" y="514" fill="#8b949e" font-size="10">UC2: Authorization Code + PKCE</text>
  <text x="50" y="530" fill="#8b949e" font-size="10">UC3: CIBA backchannel approval</text>

  <text x="50" y="563" fill="#4ade80" font-size="10" font-weight="bold">OBJ-1: Verifiable identity</text>
  <text x="50" y="579" fill="#4ade80" font-size="10" font-weight="bold">OBJ-3: Actions tied to user intent</text>

  <!-- ================================================================== -->
  <!-- CENTER: EKS  (agents + in-cluster identity/secrets pods)            -->
  <!-- ================================================================== -->
  <rect x="285" y="100" width="795" height="580" rx="12" fill="#0a1626" stroke="#3b82f6" stroke-width="2"/>
  <text x="305" y="128" fill="#60a5fa" font-size="16" font-weight="bold">EKS</text>
  <text x="345" y="128" fill="#8b949e" font-size="11">— Kubernetes 1.34 · managed node group · 3 AZs · all workloads run as pods here</text>

  <!-- Central agent loop circle -->
  <circle cx="500" cy="250" r="96" fill="none" stroke="#3b82f6" stroke-width="3" stroke-dasharray="8,4" opacity="0.4"/>
  <circle cx="500" cy="250" r="76" fill="url(#agentRingD)" stroke="#3b82f6" stroke-width="2"/>
  <text x="500" y="244" fill="#60a5fa" font-size="14" font-weight="bold" text-anchor="middle">Strands Agent</text>
  <text x="500" y="262" fill="#60a5fa" font-size="14" font-weight="bold" text-anchor="middle">Loop</text>
  <text x="465" y="287" fill="#8b949e" font-size="9" text-anchor="middle">model calls</text>
  <text x="540" y="287" fill="#8b949e" font-size="9" text-anchor="middle">tool calls</text>
  <text x="500" y="307" fill="#8b949e" font-size="9" text-anchor="middle">Bedrock Nova Pro</text>

  <!-- Namespace labels -->
  <text x="312" y="482" fill="#60a5fa" font-size="9" font-style="italic">ns: uc1</text>
  <text x="450" y="482" fill="#60a5fa" font-size="9" font-style="italic">ns: banking-app</text>
  <text x="632" y="482" fill="#60a5fa" font-size="9" font-style="italic">ns: uc3</text>

  <!-- UC1 box (teal) -->
  <rect x="305" y="490" width="132" height="80" rx="8" fill="#0d2a2a" stroke="#14b8a6" stroke-width="1.5"/>
  <text x="371" y="512" fill="#2dd4bf" font-size="10" font-weight="bold" text-anchor="middle">Use Case 1</text>
  <text x="371" y="528" fill="#a7f3d0" font-size="9" text-anchor="middle">uc1-retriever-sa</text>
  <text x="371" y="544" fill="#8b949e" font-size="9" text-anchor="middle">Non-personalized R/O</text>
  <text x="371" y="560" fill="#8b949e" font-size="9" text-anchor="middle">K8s auth → Vault</text>

  <!-- UC2 box (purple) -->
  <rect x="448" y="490" width="132" height="80" rx="8" fill="#1e1040" stroke="#a855f7" stroke-width="1.5"/>
  <text x="514" y="512" fill="#c084fc" font-size="10" font-weight="bold" text-anchor="middle">Use Case 2</text>
  <text x="514" y="528" fill="#e9d5ff" font-size="9" text-anchor="middle">Banking Agent + MCP</text>
  <text x="514" y="544" fill="#8b949e" font-size="9" text-anchor="middle">OAuth personalized R/O</text>
  <text x="514" y="560" fill="#8b949e" font-size="9" text-anchor="middle">JWT auth → per-user</text>

  <!-- UC3 box (blue) -->
  <rect x="591" y="490" width="132" height="80" rx="8" fill="#0a1a3f" stroke="#3b82f6" stroke-width="1.5"/>
  <text x="657" y="512" fill="#60a5fa" font-size="10" font-weight="bold" text-anchor="middle">Use Case 3</text>
  <text x="657" y="528" fill="#bfdbfe" font-size="9" text-anchor="middle">uc3-privileged-sa</text>
  <text x="657" y="544" fill="#8b949e" font-size="9" text-anchor="middle">CIBA privileged write</text>
  <text x="657" y="560" fill="#8b949e" font-size="9" text-anchor="middle">bound_claims enforce</text>

  <!-- NetworkPolicy label -->
  <rect x="305" y="580" width="418" height="30" rx="6" fill="#2a0e0e" stroke="#ef4444" stroke-width="1"/>
  <text x="514" y="599" fill="#f87171" font-size="9" font-weight="bold" text-anchor="middle">Kubernetes NetworkPolicy — default-deny, per-pod egress allowlists (OBJ-4)</text>

  <!-- ......... Identity + Secrets sub-panel (in-cluster pods) ......... -->
  <rect x="735" y="300" width="330" height="372" rx="10" fill="#18102b" stroke="#a855f7" stroke-width="1.5"/>
  <text x="752" y="324" fill="#c084fc" font-size="13" font-weight="bold">Identity + Secrets</text>
  <text x="752" y="339" fill="#8b949e" font-size="9">in-cluster pods — IVIA · OpenLDAP · Vault</text>

  <!-- IVIA box -->
  <rect x="745" y="348" width="310" height="100" rx="8" fill="#1a0a2e" stroke="#f97316" stroke-width="1.5"/>
  <rect x="757" y="364" width="22" height="4" rx="1" fill="#f97316"/>
  <rect x="757" y="372" width="16" height="4" rx="1" fill="#f97316"/>
  <rect x="757" y="380" width="22" height="4" rx="1" fill="#f97316"/>
  <text x="787" y="372" fill="#fb923c" font-size="11" font-weight="bold">IBM Verify Identity Access</text>
  <text x="787" y="386" fill="#8b949e" font-size="9">(OIDC Provider 25.10 + WRP + AAC Runtime)</text>
  <text x="757" y="410" fill="#fdba74" font-size="8.5">OAuth ROPC / PKCE</text>
  <text x="872" y="410" fill="#fdba74" font-size="8.5">CIBA (OIDC)</text>
  <text x="958" y="410" fill="#fdba74" font-size="8.5">may_act (8693)</text>
  <text x="757" y="424" fill="#fdba74" font-size="8.5">JWKS endpoint</text>
  <text x="872" y="424" fill="#fdba74" font-size="8.5">RAR (RFC 9396)</text>
  <text x="958" y="424" fill="#fdba74" font-size="8.5">auth_details</text>

  <!-- OpenLDAP mini-box -->
  <rect x="745" y="456" width="150" height="32" rx="6" fill="#0d1117" stroke="#6b7280" stroke-width="1"/>
  <text x="820" y="476" fill="#c9d1d9" font-size="9" font-weight="600" text-anchor="middle">OpenLDAP — LDAP bind</text>
  <text x="905" y="470" fill="#8b949e" font-size="8.5">in-cluster directory</text>
  <text x="905" y="482" fill="#8b949e" font-size="8.5">(stands in for AD)</text>

  <!-- THE SEAM -->
  <rect x="755" y="496" width="290" height="26" rx="13" fill="url(#seamGradD)" opacity="0.18"/>
  <line x1="755" y1="509" x2="1045" y2="509" stroke="url(#seamGradD)" stroke-width="3"/>
  <text x="903" y="513" fill="#e6edf3" font-size="10" font-weight="bold" text-anchor="middle">JWKS validation — THE SEAM</text>
  <circle cx="755" cy="509" r="4" fill="#a855f7"/>
  <circle cx="1045" cy="509" r="4" fill="#22d3ee"/>

  <!-- Vault box with signature gradient ring -->
  <rect x="745" y="530" width="310" height="130" rx="8" fill="#0d1117" stroke="#3b82f6" stroke-width="1.5"/>
  <circle cx="790" cy="578" r="30" fill="url(#vaultRingGrad)" opacity="0.9"/>
  <circle cx="790" cy="578" r="25" fill="url(#vaultCore)"/>
  <polygon points="790,565 780,583 800,583" fill="white" opacity="0.9"/>
  <rect x="785" y="574" width="10" height="7" fill="#0d1117"/>
  <text x="837" y="556" fill="#60a5fa" font-size="12" font-weight="bold">HashiCorp Vault</text>
  <text x="837" y="571" fill="#8b949e" font-size="9">(3-node Raft HA, KMS auto-unseal)</text>
  <text x="837" y="592" fill="#bfdbfe" font-size="9">K8s auth (SA JWT)</text>
  <text x="837" y="606" fill="#bfdbfe" font-size="9">JWT auth (IVIA id_token)</text>
  <text x="837" y="620" fill="#bfdbfe" font-size="9">Dynamic Postgres + AWS secrets</text>
  <text x="755" y="644" fill="#f59e0b" font-size="9" font-weight="bold">No standing privileges — TTL 5-15m (OBJ-2)</text>

  <!-- ================================================================== -->
  <!-- RIGHT: AWS Managed Services  (outside the cluster)                  -->
  <!-- ================================================================== -->
  <rect x="1100" y="100" width="475" height="330" rx="12" fill="#07221f" stroke="#14b8a6" stroke-width="2"/>
  <text x="1118" y="128" fill="#2dd4bf" font-size="14" font-weight="bold">AWS Managed Services</text>
  <text x="1118" y="145" fill="#8b949e" font-size="9">outside the cluster — reached only with Vault-vended JIT credentials</text>

  <!-- RDS box -->
  <rect x="1115" y="158" width="215" height="120" rx="6" fill="#0d1117" stroke="#14b8a6" stroke-width="1"/>
  <ellipse cx="1135" cy="180" rx="9" ry="4.5" fill="none" stroke="#2dd4bf" stroke-width="1.5"/>
  <path d="M1126,180 L1126,198 Q1135,207 1144,198 L1144,180" fill="none" stroke="#2dd4bf" stroke-width="1.5"/>
  <text x="1158" y="184" fill="#e6edf3" font-size="11" font-weight="600">RDS PostgreSQL 17</text>
  <text x="1126" y="216" fill="#8b949e" font-size="9">pgaudit + Row-Level Security</text>
  <text x="1126" y="234" fill="#8b949e" font-size="9">JIT creds, TTL 5-15 min</text>
  <text x="1126" y="262" fill="#fde68a" font-size="9" font-weight="bold">us-west-2</text>

  <!-- Bedrock box -->
  <rect x="1115" y="290" width="215" height="120" rx="6" fill="#0d1117" stroke="#14b8a6" stroke-width="1"/>
  <rect x="1126" y="307" width="18" height="14" rx="3" fill="#14b8a6"/>
  <text x="1131" y="318" fill="#0d1117" font-size="8" font-weight="bold">AI</text>
  <text x="1158" y="313" fill="#e6edf3" font-size="11" font-weight="600">Amazon Bedrock</text>
  <text x="1126" y="338" fill="#8b949e" font-size="9">Nova Pro (CRIS inference profile)</text>
  <text x="1126" y="356" fill="#8b949e" font-size="9">STS assumed_role creds</text>
  <text x="1126" y="384" fill="#fde68a" font-size="9" font-weight="bold">us-west-2</text>

  <!-- KB box -->
  <rect x="1348" y="158" width="215" height="252" rx="6" fill="#0d1117" stroke="#14b8a6" stroke-width="1"/>
  <text x="1368" y="182" fill="#e6edf3" font-size="11" font-weight="600">Knowledge Base</text>
  <text x="1368" y="204" fill="#8b949e" font-size="9">OpenSearch Serverless</text>
  <text x="1368" y="222" fill="#8b949e" font-size="9">S3 corpus bucket</text>
  <text x="1368" y="240" fill="#8b949e" font-size="9">Nova 2 Multimodal</text>
  <text x="1368" y="256" fill="#8b949e" font-size="9">Embeddings</text>
  <text x="1368" y="284" fill="#2dd4bf" font-size="9" font-weight="bold">KMS encrypted</text>
  <text x="1368" y="384" fill="#fde68a" font-size="9" font-weight="bold">us-east-1 (embeddings region)</text>

  <!-- ================================================================== -->
  <!-- BOTTOM: Audit + Enforcement  (IVIA + Vault + RDS pgaudit)           -->
  <!-- ================================================================== -->
  <rect x="290" y="700" width="940" height="170" rx="12" fill="#2a0e0e" stroke="#ef4444" stroke-width="2"/>
  <text x="320" y="728" fill="#f87171" font-size="14" font-weight="bold">Audit + Enforcement</text>
  <text x="320" y="744" fill="#8b949e" font-size="11">Every action logged — three-plane correlation via Athena (OBJ-5)</text>

  <rect x="310" y="760" width="120" height="50" rx="6" fill="#0d1117" stroke="#ef4444" stroke-width="1"/>
  <text x="370" y="782" fill="#e6edf3" font-size="10" font-weight="600" text-anchor="middle">IVIA Decision</text>
  <text x="370" y="796" fill="#8b949e" font-size="9" text-anchor="middle">Logs</text>

  <text x="440" y="789" fill="#f87171" font-size="14" font-weight="bold">+</text>

  <rect x="460" y="760" width="120" height="50" rx="6" fill="#0d1117" stroke="#ef4444" stroke-width="1"/>
  <text x="520" y="782" fill="#e6edf3" font-size="10" font-weight="600" text-anchor="middle">Vault Audit</text>
  <text x="520" y="796" fill="#8b949e" font-size="9" text-anchor="middle">Logs (JSON)</text>

  <text x="590" y="789" fill="#f87171" font-size="14" font-weight="bold">+</text>

  <rect x="610" y="760" width="120" height="50" rx="6" fill="#0d1117" stroke="#ef4444" stroke-width="1"/>
  <text x="670" y="782" fill="#e6edf3" font-size="10" font-weight="600" text-anchor="middle">RDS pgaudit</text>
  <text x="670" y="796" fill="#8b949e" font-size="9" text-anchor="middle">DB write logs</text>

  <line x1="740" y1="785" x2="788" y2="785" stroke="#ef4444" stroke-width="2" marker-end="url(#ao-red)"/>

  <rect x="798" y="760" width="160" height="50" rx="6" fill="#0d1117" stroke="#ef4444" stroke-width="1.5"/>
  <text x="878" y="780" fill="#f87171" font-size="11" font-weight="bold" text-anchor="middle">Amazon Athena</text>
  <text x="878" y="796" fill="#c9d1d9" font-size="9" text-anchor="middle">request_id JOIN across 3 planes</text>

  <rect x="978" y="760" width="240" height="50" rx="6" fill="#2a0e0e" stroke="none"/>
  <text x="988" y="780" fill="#f87171" font-size="10" font-weight="bold">Answers:</text>
  <text x="988" y="796" fill="#c9d1d9" font-size="9">Who authorized what, when, for whom?</text>

  <text x="320" y="838" fill="#8b949e" font-size="10">KMS encryption: RDS, AOSS, S3, CloudWatch (single workshop CMK)</text>
  <text x="320" y="854" fill="#8b949e" font-size="10">OBJ-2: No standing privileges — credentials expire with the Vault token lifecycle</text>

  <!-- ================================================================== -->
  <!-- NUMBERED FLOW ARROWS                                                -->
  <!-- ================================================================== -->
  <!-- 1: User → EKS -->
  <line x1="244" y1="300" x2="283" y2="300" stroke="#3b82f6" stroke-width="2" stroke-dasharray="6,3" marker-end="url(#ao-blue)"/>
  <circle cx="263" cy="284" r="12" fill="#3b82f6"/>
  <text x="263" y="288" fill="white" font-size="11" font-weight="bold" text-anchor="middle">1</text>
  <text x="263" y="270" fill="#60a5fa" font-size="9" text-anchor="middle">invoke agent</text>

  <!-- 2: Agent → IVIA (authenticate) -->
  <line x1="600" y1="290" x2="743" y2="392" stroke="#a855f7" stroke-width="2" stroke-dasharray="6,3" marker-end="url(#ao-purple)"/>
  <circle cx="672" cy="341" r="12" fill="#a855f7"/>
  <text x="672" y="345" fill="white" font-size="11" font-weight="bold" text-anchor="middle">2</text>
  <text x="612" y="318" fill="#c084fc" font-size="9">authenticate</text>
  <text x="612" y="330" fill="#c084fc" font-size="9">(OAuth / CIBA)</text>

  <!-- 3: IVIA ↔ Vault JWKS (THE SEAM) -->
  <circle cx="730" cy="509" r="12" fill="#8b5cf6"/>
  <text x="730" y="513" fill="white" font-size="11" font-weight="bold" text-anchor="middle">3</text>

  <!-- 4: Vault → Agent (JIT credentials), pointing at Use Case 3 -->
  <line x1="752" y1="556" x2="726" y2="532" stroke="#3b82f6" stroke-width="2" stroke-dasharray="6,3" marker-end="url(#ao-blue)"/>
  <circle cx="741" cy="546" r="12" fill="#3b82f6"/>
  <text x="741" y="550" fill="white" font-size="11" font-weight="bold" text-anchor="middle">4</text>
  <text x="612" y="642" fill="#60a5fa" font-size="9">JIT creds (Postgres, STS)</text>

  <!-- 5: Agent → Managed Services (access data) -->
  <line x1="598" y1="232" x2="1098" y2="200" stroke="#14b8a6" stroke-width="2" stroke-dasharray="6,3" marker-end="url(#ao-teal)"/>
  <circle cx="850" cy="212" r="12" fill="#14b8a6"/>
  <text x="850" y="216" fill="white" font-size="11" font-weight="bold" text-anchor="middle">5</text>
  <text x="850" y="192" fill="#2dd4bf" font-size="9" text-anchor="middle">access data with scoped JIT creds</text>

  <!-- 6: Agent → Audit -->
  <line x1="430" y1="616" x2="430" y2="698" stroke="#ef4444" stroke-width="2" stroke-dasharray="6,3" marker-end="url(#ao-red)"/>
  <circle cx="430" cy="657" r="12" fill="#ef4444"/>
  <text x="430" y="661" fill="white" font-size="11" font-weight="bold" text-anchor="middle">6</text>
  <text x="470" y="655" fill="#f87171" font-size="9">every action</text>
  <text x="470" y="667" fill="#f87171" font-size="9">audited</text>

  <!-- 7: EKS → User (response) -->
  <line x1="283" y1="410" x2="244" y2="410" stroke="#22c55e" stroke-width="2" stroke-dasharray="6,3" marker-end="url(#ao-green)"/>
  <circle cx="263" cy="425" r="12" fill="#22c55e"/>
  <text x="263" y="429" fill="white" font-size="11" font-weight="bold" text-anchor="middle">7</text>
  <text x="263" y="447" fill="#4ade80" font-size="9" text-anchor="middle">streams answer</text>

  <!-- ================================================================== -->
  <!-- FLOW LEGEND (bottom-left)                                           -->
  <!-- ================================================================== -->
  <rect x="30" y="700" width="250" height="170" rx="8" fill="#161b22" stroke="#30363d" stroke-width="1"/>
  <text x="50" y="724" fill="#c9d1d9" font-size="11" font-weight="bold">Flow Legend</text>

  <line x1="50" y1="744" x2="80" y2="744" stroke="#3b82f6" stroke-width="2" stroke-dasharray="6,3"/>
  <text x="90" y="748" fill="#8b949e" font-size="10">Primary data flow</text>

  <line x1="50" y1="766" x2="80" y2="766" stroke="#a855f7" stroke-width="2" stroke-dasharray="6,3"/>
  <text x="90" y="770" fill="#8b949e" font-size="10">Identity / auth flow</text>

  <line x1="50" y1="788" x2="80" y2="788" stroke="#14b8a6" stroke-width="2" stroke-dasharray="6,3"/>
  <text x="90" y="792" fill="#8b949e" font-size="10">Data access (scoped creds)</text>

  <line x1="50" y1="810" x2="80" y2="810" stroke="#ef4444" stroke-width="2" stroke-dasharray="6,3"/>
  <text x="90" y="814" fill="#8b949e" font-size="10">Audit flow</text>

  <line x1="50" y1="832" x2="80" y2="832" stroke="#22c55e" stroke-width="2" stroke-dasharray="6,3"/>
  <text x="90" y="836" fill="#8b949e" font-size="10">Response to user</text>

  <text x="50" y="858" fill="#6b7280" font-size="9">Verify never sees the database.</text>

  <!-- ================================================================== -->
  <!-- OBJECTIVES SUMMARY (bottom-right)                                   -->
  <!-- ================================================================== -->
  <rect x="1270" y="700" width="310" height="170" rx="8" fill="#161b22" stroke="#30363d" stroke-width="1"/>
  <text x="1290" y="724" fill="#c9d1d9" font-size="12" font-weight="bold">Five Control Objectives</text>
  <text x="1290" y="746" fill="#4ade80" font-size="10">OBJ-1  Verifiable identity (K8s SA + OAuth JWT)</text>
  <text x="1290" y="764" fill="#60a5fa" font-size="10">OBJ-2  No standing privileges (JIT, TTL 5-15m)</text>
  <text x="1290" y="782" fill="#c084fc" font-size="10">OBJ-3  Actions tied to user intent (PKCE, CIBA)</text>
  <text x="1290" y="800" fill="#f87171" font-size="10">OBJ-4  Enforcement at point of use (3-layer)</text>
  <text x="1290" y="818" fill="#2dd4bf" font-size="10">OBJ-5  Correlated audit evidence (Athena JOIN)</text>
  <text x="1290" y="846" fill="#8b949e" font-size="9">Vault never authenticates an end user.</text>
  <text x="1290" y="860" fill="#8b949e" font-size="9">Each system owns exactly one trust plane.</text>

</svg>
